<?xml version="1.0" encoding="UTF-8" standalone="no"?>
<svg xmlns="http://www.w3.org/2000/svg"
     width="1000.0"
     height="1000.0"
     viewBox="0 0 1000.0 1000.0" >
<path style="fill:none;stroke:#000000;stroke-width:1px" id="2" d="m 700,200 25.000000000000007,43.30127018922193 48.29629131445341,12.940952255126033 43.30127018922194,-24.999999999999996 12.940952255126037,-48.29629131445341 -24.99999999999999,-43.30127018922194 -48.29629131445341,-12.940952255126051 -43.30127018922193,25.000000000000007 -12.940952255126032,48.29629131445341 -43.30127018922194,-24.999999999999996 -48.29629131445342,12.940952255126017 -25.00000000000002,43.30127018922192 12.940952255126057,48.29629131445341 43.30127018922192,25.00000000000002 48.29629131445341,-12.940952255126037 25.000000000000007,-43.30127018922193 -12.940952255126042,-48.29629131445341 50.0,-0.0 35.35533905932738,-35.35533905932737 3.061616997868383e-15,-50.0 -35.35533905932737,-35.35533905932738 -50.0,-6.123233995736766e-15 -35.355339059327385,35.35533905932737 -9.184850993605149e-15,50.0 35.35533905932737,35.355339059327385 -43.30127018922193,25.000000000000007 -12.940952255126032,48.29629131445341 25.000000000000007,43.30127018922193 48.29629131445341,12.940952255126033 43.30127018922194,-24.999999999999996 12.940952255126037,-48.29629131445341 -24.99999999999999,-43.30127018922194 -48.29629131445341,-12.940952255126051 25.000000000000007,-43.30127018922193 -12.940952255126042,-48.29629131445341 -43.30127018922194,-24.999999999999996 -48.29629131445342,12.940952255126017 -25.00000000000002,43.30127018922192 12.940952255126057,48.29629131445341 43.30127018922192,25.00000000000002 48.29629131445341,-12.940952255126037 -9.184850993605149e-15,50.0 35.35533905932737,35.355339059327385 50.0,-0.0 35.35533905932738,-35.35533905932737 3.061616997868383e-15,-50.0 -35.35533905932737,-35.35533905932738 -50.0,-6.123233995736766e-15 -35.355339059327385,35.35533905932737 -24.99999999999999,-43.30127018922194 -48.29629131445341,-12.940952255126051 -43.30127018922193,25.000000000000007 -12.940952255126032,48.29629131445341 25.000000000000007,43.30127018922193 48.29629131445341,12.940952255126033 43.30127018922194,-24.999999999999996 12.940952255126037,-48.29629131445341 43.30127018922192,25.00000000000002 48.29629131445341,-12.940952255126037 25.000000000000007,-43.30127018922193 -12.940952255126042,-48.29629131445341 -43.30127018922194,-24.999999999999996 -48.29629131445342,12.940952255126017 -25.00000000000002,43.30127018922192 12.940952255126057,48.29629131445341 -50.0,-6.123233995736766e-15 -35.355339059327385,35.35533905932737 -9.184850993605149e-15,50.0 35.35533905932737,35.355339059327385 50.0,-0.0 35.35533905932738,-35.35533905932737 3.061616997868383e-15,-50.0 -35.35533905932737,-35.35533905932738 43.30127018922194,-24.999999999999996 12.940952255126037,-48.29629131445341 -24.99999999999999,-43.30127018922194 -48.29629131445341,-12.940952255126051 -43.30127018922193,25.000000000000007 -12.940952255126032,48.29629131445341 25.000000000000007,43.30127018922193 48.29629131445341,12.940952255126033 -25.00000000000002,43.30127018922192 12.940952255126057,48.29629131445341 43.30127018922192,25.00000000000002 48.29629131445341,-12.940952255126037 25.000000000000007,-43.30127018922193 -12.940952255126042,-48.29629131445341 -43.30127018922194,-24.999999999999996 -48.29629131445342,12.940952255126017 3.061616997868383e-15,-50.0 -35.35533905932737,-35.35533905932738 -50.0,-6.123233995736766e-15 -35.355339059327385,35.35533905932737 -9.184850993605149e-15,50.0 35.35533905932737,35.355339059327385 50.0,-0.0 35.35533905932738,-35.35533905932737 25.000000000000007,43.30127018922193 48.29629131445341,12.940952255126033 43.30127018922194,-24.999999999999996 12.940952255126037,-48.29629131445341 -24.99999999999999,-43.30127018922194 -48.29629131445341,-12.940952255126051 -43.30127018922193,25.000000000000007 -12.940952255126032,48.29629131445341 -43.30127018922194,-24.999999999999996 -48.29629131445342,12.940952255126017 -25.00000000000002,43.30127018922192 12.940952255126057,48.29629131445341 43.30127018922192,25.00000000000002 48.29629131445341,-12.940952255126037 25.000000000000007,-43.30127018922193 -12.940952255126042,-48.29629131445341 50.0,-0.0 35.35533905932738,-35.35533905932737 3.061616997868383e-15,-50.0 -35.35533905932737,-35.35533905932738 -50.0,-6.123233995736766e-15 -35.355339059327385,35.35533905932737 -9.184850993605149e-15,50.0 35.35533905932737,35.355339059327385 -43.30127018922193,25.000000000000007 -12.940952255126032,48.29629131445341 25.000000000000007,43.30127018922193 48.29629131445341,12.940952255126033 43.30127018922194,-24.999999999999996 12.940952255126037,-48.29629131445341 -24.99999999999999,-43.30127018922194 -48.29629131445341,-12.940952255126051 25.000000000000007,-43.30127018922193 -12.940952255126042,-48.29629131445341 -43.30127018922194,-24.999999999999996 -48.29629131445342,12.940952255126017 -25.00000000000002,43.30127018922192 12.940952255126057,48.29629131445341 43.30127018922192,25.00000000000002 48.29629131445341,-12.940952255126037 -9.184850993605149e-15,50.0 35.35533905932737,35.355339059327385 50.0,-0.0 35.35533905932738,-35.35533905932737 3.061616997868383e-15,-50.0 -35.35533905932737,-35.35533905932738 -50.0,-6.123233995736766e-15 -35.355339059327385,35.35533905932737 -24.99999999999999,-43.30127018922194 -48.29629131445341,-12.940952255126051 -43.30127018922193,25.000000000000007 -12.940952255126032,48.29629131445341 25.000000000000007,43.30127018922193 48.29629131445341,12.940952255126033 43.30127018922194,-24.999999999999996 12.940952255126037,-48.29629131445341 43.30127018922192,25.00000000000002 48.29629131445341,-12.940952255126037 25.000000000000007,-43.30127018922193 -12.940952255126042,-48.29629131445341 -43.30127018922194,-24.999999999999996 -48.29629131445342,12.940952255126017 -25.00000000000002,43.30127018922192 12.940952255126057,48.29629131445341 -50.0,-6.123233995736766e-15 -35.355339059327385,35.35533905932737 -9.184850993605149e-15,50.0 35.35533905932737,35.355339059327385 50.0,-0.0 35.35533905932738,-35.35533905932737 3.061616997868383e-15,-50.0 -35.35533905932737,-35.35533905932738 43.30127018922194,-24.999999999999996 12.940952255126037,-48.29629131445341 -24.99999999999999,-43.30127018922194 -48.29629131445341,-12.940952255126051 -43.30127018922193,25.000000000000007 -12.940952255126032,48.29629131445341 25.000000000000007,43.30127018922193 48.29629131445341,12.940952255126033 -25.00000000000002,43.30127018922192 12.940952255126057,48.29629131445341 43.30127018922192,25.00000000000002 48.29629131445341,-12.940952255126037 25.000000000000007,-43.30127018922193 -12.940952255126042,-48.29629131445341 -43.30127018922194,-24.999999999999996 -48.29629131445342,12.940952255126017 3.061616997868383e-15,-50.0 -35.35533905932737,-35.35533905932738 -50.0,-6.123233995736766e-15 -35.355339059327385,35.35533905932737 -9.184850993605149e-15,50.0 35.35533905932737,35.355339059327385 50.0,-0.0 35.35533905932738,-35.35533905932737 25.000000000000007,43.30127018922193 48.29629131445341,12.940952255126033 43.30127018922194,-24.999999999999996 12.940952255126037,-48.29629131445341 -24.99999999999999,-43.30127018922194 -48.29629131445341,-12.940952255126051 -43.30127018922193,25.000000000000007 -12.940952255126032,48.29629131445341 -43.30127018922194,-24.999999999999996 -48.29629131445342,12.940952255126017 -25.00000000000002,43.30127018922192 12.940952255126057,48.29629131445341 43.30127018922192,25.00000000000002 48.29629131445341,-12.940952255126037 25.000000000000007,-43.30127018922193 -12.940952255126042,-48.29629131445341 50.0,-0.0 35.35533905932738,-35.35533905932737 3.061616997868383e-15,-50.0 -35.35533905932737,-35.35533905932738 -50.0,-6.123233995736766e-15 -35.355339059327385,35.35533905932737 -9.184850993605149e-15,50.0 35.35533905932737,35.355339059327385 -43.30127018922193,25.000000000000007 -12.940952255126032,48.29629131445341 25.000000000000007,43.30127018922193 48.29629131445341,12.940952255126033 43.30127018922194,-24.999999999999996 12.940952255126037,-48.29629131445341 -24.99999999999999,-43.30127018922194 -48.29629131445341,-12.940952255126051 25.000000000000007,-43.30127018922193 -12.940952255126042,-48.29629131445341 -43.30127018922194,-24.999999999999996 -48.29629131445342,12.940952255126017 -25.00000000000002,43.30127018922192 12.940952255126057,48.29629131445341 43.30127018922192,25.00000000000002 48.29629131445341,-12.940952255126037 -9.184850993605149e-15,50.0 35.35533905932737,35.355339059327385 50.0,-0.0 35.35533905932738,-35.35533905932737 3.061616997868383e-15,-50.0 -35.35533905932737,-35.35533905932738 -50.0,-6.123233995736766e-15 -35.355339059327385,35.35533905932737 -24.99999999999999,-43.30127018922194 -48.29629131445341,-12.940952255126051 -43.30127018922193,25.000000000000007 -12.940952255126032,48.29629131445341 25.000000000000007,43.30127018922193 48.29629131445341,12.940952255126033 43.30127018922194,-24.999999999999996 12.940952255126037,-48.29629131445341 43.30127018922192,25.00000000000002 48.29629131445341,-12.940952255126037 25.000000000000007,-43.30127018922193 -12.940952255126042,-48.29629131445341 -43.30127018922194,-24.999999999999996 -48.29629131445342,12.940952255126017 -25.00000000000002,43.30127018922192 12.940952255126057,48.29629131445341 -50.0,-6.123233995736766e-15 -35.355339059327385,35.35533905932737 -9.184850993605149e-15,50.0 35.35533905932737,35.355339059327385 50.0,-0.0 35.35533905932738,-35.35533905932737 3.061616997868383e-15,-50.0 -35.35533905932737,-35.35533905932738 43.30127018922194,-24.999999999999996 12.940952255126037,-48.29629131445341 -24.99999999999999,-43.30127018922194 -48.29629131445341,-12.940952255126051 -43.30127018922193,25.000000000000007 -12.940952255126032,48.29629131445341 25.000000000000007,43.30127018922193 48.29629131445341,12.940952255126033 -25.00000000000002,43.30127018922192 12.940952255126057,48.29629131445341 43.30127018922192,25.00000000000002 48.29629131445341,-12.940952255126037 25.000000000000007,-43.30127018922193 -12.940952255126042,-48.29629131445341 -43.30127018922194,-24.999999999999996 -48.29629131445342,12.940952255126017 3.061616997868383e-15,-50.0 -35.35533905932737,-35.35533905932738 -50.0,-6.123233995736766e-15 -35.355339059327385,35.35533905932737 -9.184850993605149e-15,50.0 35.35533905932737,35.355339059327385 50.0,-0.0 35.35533905932738,-35.35533905932737 25.000000000000007,43.30127018922193 48.29629131445341,12.940952255126033 43.30127018922194,-24.999999999999996 12.940952255126037,-48.29629131445341 -24.99999999999999,-43.30127018922194 -48.29629131445341,-12.940952255126051 -43.30127018922193,25.000000000000007 -12.940952255126032,48.29629131445341 -43.30127018922194,-24.999999999999996 -48.29629131445342,12.940952255126017 -25.00000000000002,43.30127018922192 12.940952255126057,48.29629131445341 43.30127018922192,25.00000000000002 48.29629131445341,-12.940952255126037 25.000000000000007,-43.30127018922193 -12.940952255126042,-48.29629131445341 50.0,-0.0 35.35533905932738,-35.35533905932737 3.061616997868383e-15,-50.0 -35.35533905932737,-35.35533905932738 -50.0,-6.123233995736766e-15 -35.355339059327385,35.35533905932737 -9.184850993605149e-15,50.0 35.35533905932737,35.355339059327385 -43.30127018922193,25.000000000000007 -12.940952255126032,48.29629131445341 25.000000000000007,43.30127018922193 48.29629131445341,12.940952255126033 43.30127018922194,-24.999999999999996 12.940952255126037,-48.29629131445341 -24.99999999999999,-43.30127018922194 -48.29629131445341,-12.940952255126051 25.000000000000007,-43.30127018922193 -12.940952255126042,-48.29629131445341 -43.30127018922194,-24.999999999999996 -48.29629131445342,12.940952255126017 -25.00000000000002,43.30127018922192 12.940952255126057,48.29629131445341 43.30127018922192,25.00000000000002 48.29629131445341,-12.940952255126037 -9.184850993605149e-15,50.0 35.35533905932737,35.355339059327385 50.0,-0.0 35.35533905932738,-35.35533905932737 3.061616997868383e-15,-50.0 -35.35533905932737,-35.35533905932738 -50.0,-6.123233995736766e-15 -35.355339059327385,35.35533905932737 -24.99999999999999,-43.30127018922194 -48.29629131445341,-12.940952255126051 -43.30127018922193,25.000000000000007 -12.940952255126032,48.29629131445341 25.000000000000007,43.30127018922193 48.29629131445341,12.940952255126033 43.30127018922194,-24.999999999999996 12.940952255126037,-48.29629131445341 43.30127018922192,25.00000000000002 48.29629131445341,-12.940952255126037 25.000000000000007,-43.30127018922193 -12.940952255126042,-48.29629131445341 -43.30127018922194,-24.999999999999996 -48.29629131445342,12.940952255126017 -25.00000000000002,43.30127018922192 12.940952255126057,48.29629131445341 -50.0,-6.123233995736766e-15 -35.355339059327385,35.35533905932737 -9.184850993605149e-15,50.0 35.35533905932737,35.355339059327385 50.0,-0.0 35.35533905932738,-35.35533905932737 3.061616997868383e-15,-50.0 -35.35533905932737,-35.35533905932738 43.30127018922194,-24.999999999999996 12.940952255126037,-48.29629131445341 -24.99999999999999,-43.30127018922194 -48.29629131445341,-12.940952255126051 -43.30127018922193,25.000000000000007 -12.940952255126032,48.29629131445341 25.000000000000007,43.30127018922193 48.29629131445341,12.940952255126033 -25.00000000000002,43.30127018922192 12.940952255126057,48.29629131445341 43.30127018922192,25.00000000000002 48.29629131445341,-12.940952255126037 25.000000000000007,-43.30127018922193 -12.940952255126042,-48.29629131445341 -43.30127018922194,-24.999999999999996 -48.29629131445342,12.940952255126017 3.061616997868383e-15,-50.0 -35.35533905932737,-35.35533905932738 -50.0,-6.123233995736766e-15 -35.355339059327385,35.35533905932737 -9.184850993605149e-15,50.0 35.35533905932737,35.355339059327385 50.0,-0.0 35.35533905932738,-35.35533905932737 25.000000000000007,43.30127018922193 48.29629131445341,12.940952255126033 43.30127018922194,-24.999999999999996 12.940952255126037,-48.29629131445341 -24.99999999999999,-43.30127018922194 -48.29629131445341,-12.940952255126051 -43.30127018922193,25.000000000000007 -12.940952255126032,48.29629131445341 -43.30127018922194,-24.999999999999996 -48.29629131445342,12.940952255126017 -25.00000000000002,43.30127018922192 12.940952255126057,48.29629131445341 43.30127018922192,25.00000000000002 48.29629131445341,-12.940952255126037 25.000000000000007,-43.30127018922193 -12.940952255126042,-48.29629131445341 50.0,-0.0 35.35533905932738,-35.35533905932737 3.061616997868383e-15,-50.0 -35.35533905932737,-35.35533905932738 -50.0,-6.123233995736766e-15 -35.355339059327385,35.35533905932737 -9.184850993605149e-15,50.0 35.35533905932737,35.355339059327385 -43.30127018922193,25.000000000000007 -12.940952255126032,48.29629131445341 25.000000000000007,43.30127018922193 48.29629131445341,12.940952255126033 43.30127018922194,-24.999999999999996 12.940952255126037,-48.29629131445341 -24.99999999999999,-43.30127018922194 -48.29629131445341,-12.940952255126051 25.000000000000007,-43.30127018922193 -12.940952255126042,-48.29629131445341 -43.30127018922194,-24.999999999999996 -48.29629131445342,12.940952255126017 -25.00000000000002,43.30127018922192 12.940952255126057,48.29629131445341 43.30127018922192,25.00000000000002 48.29629131445341,-12.940952255126037 -9.184850993605149e-15,50.0 35.35533905932737,35.355339059327385 50.0,-0.0 35.35533905932738,-35.35533905932737 3.061616997868383e-15,-50.0 -35.35533905932737,-35.35533905932738 -50.0,-6.123233995736766e-15 -35.355339059327385,35.35533905932737 -24.99999999999999,-43.30127018922194 -48.29629131445341,-12.940952255126051 -43.30127018922193,25.000000000000007 -12.940952255126032,48.29629131445341 25.000000000000007,43.30127018922193 48.29629131445341,12.940952255126033 43.30127018922194,-24.999999999999996 12.940952255126037,-48.29629131445341 43.30127018922192,25.00000000000002 48.29629131445341,-12.940952255126037 25.000000000000007,-43.30127018922193 -12.940952255126042,-48.29629131445341 -43.30127018922194,-24.999999999999996 -48.29629131445342,12.940952255126017 -25.00000000000002,43.30127018922192 12.940952255126057,48.29629131445341 -50.0,-6.123233995736766e-15 -35.355339059327385,35.35533905932737 -9.184850993605149e-15,50.0 35.35533905932737,35.355339059327385 50.0,-0.0 35.35533905932738,-35.35533905932737 3.061616997868383e-15,-50.0 -35.35533905932737,-35.35533905932738 43.30127018922194,-24.999999999999996 12.940952255126037,-48.29629131445341 -24.99999999999999,-43.30127018922194 -48.29629131445341,-12.940952255126051 -43.30127018922193,25.000000000000007 -12.940952255126032,48.29629131445341 25.000000000000007,43.30127018922193 48.29629131445341,12.940952255126033 -25.00000000000002,43.30127018922192 12.940952255126057,48.29629131445341 43.30127018922192,25.00000000000002 48.29629131445341,-12.940952255126037 25.000000000000007,-43.30127018922193 -12.940952255126042,-48.29629131445341 -43.30127018922194,-24.999999999999996 -48.29629131445342,12.940952255126017 3.061616997868383e-15,-50.0 -35.35533905932737,-35.35533905932738 -50.0,-6.123233995736766e-15 -35.355339059327385,35.35533905932737 -9.184850993605149e-15,50.0 35.35533905932737,35.355339059327385 50.0,-0.0 35.35533905932738,-35.35533905932737 25.000000000000007,43.30127018922193 48.29629131445341,12.940952255126033 43.30127018922194,-24.999999999999996 12.940952255126037,-48.29629131445341 -24.99999999999999,-43.30127018922194 -48.29629131445341,-12.940952255126051 -43.30127018922193,25.000000000000007 -12.940952255126032,48.29629131445341 -43.30127018922194,-24.999999999999996 -48.29629131445342,12.940952255126017 -25.00000000000002,43.30127018922192 12.940952255126057,48.29629131445341 43.30127018922192,25.00000000000002 48.29629131445341,-12.940952255126037 25.000000000000007,-43.30127018922193 -12.940952255126042,-48.29629131445341 50.0,-0.0 35.35533905932738,-35.35533905932737 3.061616997868383e-15,-50.0 -35.35533905932737,-35.35533905932738 -50.0,-6.123233995736766e-15 -35.355339059327385,35.35533905932737 -9.184850993605149e-15,50.0 35.35533905932737,35.355339059327385 -43.30127018922193,25.000000000000007 -12.940952255126032,48.29629131445341 25.000000000000007,43.30127018922193 48.29629131445341,12.940952255126033 43.30127018922194,-24.999999999999996 12.940952255126037,-48.29629131445341 -24.99999999999999,-43.30127018922194 -48.29629131445341,-12.940952255126051 25.000000000000007,-43.30127018922193 -12.940952255126042,-48.29629131445341 -43.30127018922194,-24.999999999999996 -48.29629131445342,12.940952255126017 -25.00000000000002,43.30127018922192 12.940952255126057,48.29629131445341 43.30127018922192,25.00000000000002 48.29629131445341,-12.940952255126037 -9.184850993605149e-15,50.0 35.35533905932737,35.355339059327385 50.0,-0.0 35.35533905932738,-35.35533905932737 3.061616997868383e-15,-50.0 -35.35533905932737,-35.35533905932738 -50.0,-6.123233995736766e-15 -35.355339059327385,35.35533905932737 -24.99999999999999,-43.30127018922194 -48.29629131445341,-12.940952255126051 -43.30127018922193,25.000000000000007 -12.940952255126032,48.29629131445341 25.000000000000007,43.30127018922193 48.29629131445341,12.940952255126033 43.30127018922194,-24.999999999999996 12.940952255126037,-48.29629131445341 43.30127018922192,25.00000000000002 48.29629131445341,-12.940952255126037 25.000000000000007,-43.30127018922193 -12.940952255126042,-48.29629131445341 -43.30127018922194,-24.999999999999996 -48.29629131445342,12.940952255126017 -25.00000000000002,43.30127018922192 12.940952255126057,48.29629131445341 -50.0,-6.123233995736766e-15 -35.355339059327385,35.35533905932737 -9.184850993605149e-15,50.0 35.35533905932737,35.355339059327385 50.0,-0.0 35.35533905932738,-35.35533905932737 3.061616997868383e-15,-50.0 -35.35533905932737,-35.35533905932738 43.30127018922194,-24.999999999999996 12.940952255126037,-48.29629131445341 -24.99999999999999,-43.30127018922194 -48.29629131445341,-12.940952255126051 -43.30127018922193,25.000000000000007 -12.940952255126032,48.29629131445341 25.000000000000007,43.30127018922193 48.29629131445341,12.940952255126033 -25.00000000000002,43.30127018922192 12.940952255126057,48.29629131445341 43.30127018922192,25.00000000000002 48.29629131445341,-12.940952255126037 25.000000000000007,-43.30127018922193 -12.940952255126042,-48.29629131445341 -43.30127018922194,-24.999999999999996 -48.29629131445342,12.940952255126017 3.061616997868383e-15,-50.0 -35.35533905932737,-35.35533905932738 -50.0,-6.123233995736766e-15 -35.355339059327385,35.35533905932737 -9.184850993605149e-15,50.0 35.35533905932737,35.355339059327385 50.0,-0.0 35.35533905932738,-35.35533905932737 z" />
<path style="fill:none;stroke:#000000;stroke-width:1px" id="1" d="m 500,500 25.000000000000007,43.30127018922193 48.29629131445341,12.940952255126033 43.30127018922194,-24.999999999999996 12.940952255126037,-48.29629131445341 -24.99999999999999,-43.30127018922194 -48.29629131445341,-12.940952255126051 -43.30127018922193,25.000000000000007 -12.940952255126032,48.29629131445341 -43.30127018922194,-24.999999999999996 -48.29629131445342,12.940952255126017 -25.00000000000002,43.30127018922192 12.940952255126057,48.29629131445341 43.30127018922192,25.00000000000002 48.29629131445341,-12.940952255126037 25.000000000000007,-43.30127018922193 -12.940952255126042,-48.29629131445341 50.0,-0.0 35.35533905932738,-35.35533905932737 3.061616997868383e-15,-50.0 -35.35533905932737,-35.35533905932738 -50.0,-6.123233995736766e-15 -35.355339059327385,35.35533905932737 -9.184850993605149e-15,50.0 35.35533905932737,35.355339059327385 -43.30127018922193,25.000000000000007 -12.940952255126032,48.29629131445341 25.000000000000007,43.30127018922193 48.29629131445341,12.940952255126033 43.30127018922194,-24.999999999999996 12.940952255126037,-48.29629131445341 -24.99999999999999,-43.30127018922194 -48.29629131445341,-12.940952255126051 25.000000000000007,-43.30127018922193 -12.940952255126042,-48.29629131445341 -43.30127018922194,-24.999999999999996 -48.29629131445342,12.940952255126017 -25.00000000000002,43.30127018922192 12.940952255126057,48.29629131445341 43.30127018922192,25.00000000000002 48.29629131445341,-12.940952255126037 -9.184850993605149e-15,50.0 35.35533905932737,35.355339059327385 50.0,-0.0 35.35533905932738,-35.35533905932737 3.061616997868383e-15,-50.0 -35.35533905932737,-35.35533905932738 -50.0,-6.123233995736766e-15 -35.355339059327385,35.35533905932737 -24.99999999999999,-43.30127018922194 -48.29629131445341,-12.940952255126051 -43.30127018922193,25.000000000000007 -12.940952255126032,48.29629131445341 25.000000000000007,43.30127018922193 48.29629131445341,12.940952255126033 43.30127018922194,-24.999999999999996 12.940952255126037,-48.29629131445341 43.30127018922192,25.00000000000002 48.29629131445341,-12.940952255126037 25.000000000000007,-43.30127018922193 -12.940952255126042,-48.29629131445341 -43.30127018922194,-24.999999999999996 -48.29629131445342,12.940952255126017 -25.00000000000002,43.30127018922192 12.940952255126057,48.29629131445341 -50.0,-6.123233995736766e-15 -35.355339059327385,35.35533905932737 -9.184850993605149e-15,50.0 35.35533905932737,35.355339059327385 50.0,-0.0 35.35533905932738,-35.35533905932737 3.061616997868383e-15,-50.0 -35.35533905932737,-35.35533905932738 43.30127018922194,-24.999999999999996 12.940952255126037,-48.29629131445341 -24.99999999999999,-43.30127018922194 -48.29629131445341,-12.940952255126051 -43.30127018922193,25.000000000000007 -12.940952255126032,48.29629131445341 25.000000000000007,43.30127018922193 48.29629131445341,12.940952255126033 -25.00000000000002,43.30127018922192 12.940952255126057,48.29629131445341 43.30127018922192,25.00000000000002 48.29629131445341,-12.940952255126037 25.000000000000007,-43.30127018922193 -12.940952255126042,-48.29629131445341 -43.30127018922194,-24.999999999999996 -48.29629131445342,12.940952255126017 3.061616997868383e-15,-50.0 -35.35533905932737,-35.35533905932738 -50.0,-6.123233995736766e-15 -35.355339059327385,35.35533905932737 -9.184850993605149e-15,50.0 35.35533905932737,35.355339059327385 50.0,-0.0 35.35533905932738,-35.35533905932737 25.000000000000007,43.30127018922193 48.29629131445341,12.940952255126033 43.30127018922194,-24.999999999999996 12.940952255126037,-48.29629131445341 -24.99999999999999,-43.30127018922194 -48.29629131445341,-12.940952255126051 -43.30127018922193,25.000000000000007 -12.940952255126032,48.29629131445341 -43.30127018922194,-24.999999999999996 -48.29629131445342,12.940952255126017 -25.00000000000002,43.30127018922192 12.940952255126057,48.29629131445341 43.30127018922192,25.00000000000002 48.29629131445341,-12.940952255126037 25.000000000000007,-43.30127018922193 -12.940952255126042,-48.29629131445341 50.0,-0.0 35.35533905932738,-35.35533905932737 3.061616997868383e-15,-50.0 -35.35533905932737,-35.35533905932738 -50.0,-6.123233995736766e-15 -35.355339059327385,35.35533905932737 -9.184850993605149e-15,50.0 35.35533905932737,35.355339059327385 -43.30127018922193,25.000000000000007 -12.940952255126032,48.29629131445341 25.000000000000007,43.30127018922193 48.29629131445341,12.940952255126033 43.30127018922194,-24.999999999999996 12.940952255126037,-48.29629131445341 -24.99999999999999,-43.30127018922194 -48.29629131445341,-12.940952255126051 25.000000000000007,-43.30127018922193 -12.940952255126042,-48.29629131445341 -43.30127018922194,-24.999999999999996 -48.29629131445342,12.940952255126017 -25.00000000000002,43.30127018922192 12.940952255126057,48.29629131445341 43.30127018922192,25.00000000000002 48.29629131445341,-12.940952255126037 -9.184850993605149e-15,50.0 35.35533905932737,35.355339059327385 50.0,-0.0 35.35533905932738,-35.35533905932737 3.061616997868383e-15,-50.0 -35.35533905932737,-35.35533905932738 -50.0,-6.123233995736766e-15 -35.355339059327385,35.35533905932737 -24.99999999999999,-43.30127018922194 -48.29629131445341,-12.940952255126051 -43.30127018922193,25.000000000000007 -12.940952255126032,48.29629131445341 25.000000000000007,43.30127018922193 48.29629131445341,12.940952255126033 43.30127018922194,-24.999999999999996 12.940952255126037,-48.29629131445341 43.30127018922192,25.00000000000002 48.29629131445341,-12.940952255126037 25.000000000000007,-43.30127018922193 -12.940952255126042,-48.29629131445341 -43.30127018922194,-24.999999999999996 -48.29629131445342,12.940952255126017 -25.00000000000002,43.30127018922192 12.940952255126057,48.29629131445341 -50.0,-6.123233995736766e-15 -35.355339059327385,35.35533905932737 -9.184850993605149e-15,50.0 35.35533905932737,35.355339059327385 50.0,-0.0 35.35533905932738,-35.35533905932737 3.061616997868383e-15,-50.0 -35.35533905932737,-35.35533905932738 43.30127018922194,-24.999999999999996 12.940952255126037,-48.29629131445341 -24.99999999999999,-43.30127018922194 -48.29629131445341,-12.940952255126051 -43.30127018922193,25.000000000000007 -12.940952255126032,48.29629131445341 25.000000000000007,43.30127018922193 48.29629131445341,12.940952255126033 -25.00000000000002,43.30127018922192 12.940952255126057,48.29629131445341 43.30127018922192,25.00000000000002 48.29629131445341,-12.940952255126037 25.000000000000007,-43.30127018922193 -12.940952255126042,-48.29629131445341 -43.30127018922194,-24.999999999999996 -48.29629131445342,12.940952255126017 3.061616997868383e-15,-50.0 -35.35533905932737,-35.35533905932738 -50.0,-6.123233995736766e-15 -35.355339059327385,35.35533905932737 -9.184850993605149e-15,50.0 35.35533905932737,35.355339059327385 50.0,-0.0 35.35533905932738,-35.35533905932737 25.000000000000007,43.30127018922193 48.29629131445341,12.940952255126033 43.30127018922194,-24.999999999999996 12.940952255126037,-48.29629131445341 -24.99999999999999,-43.30127018922194 -48.29629131445341,-12.940952255126051 -43.30127018922193,25.000000000000007 -12.940952255126032,48.29629131445341 -43.30127018922194,-24.999999999999996 -48.29629131445342,12.940952255126017 -25.00000000000002,43.30127018922192 12.940952255126057,48.29629131445341 43.30127018922192,25.00000000000002 48.29629131445341,-12.940952255126037 25.000000000000007,-43.30127018922193 -12.940952255126042,-48.29629131445341 50.0,-0.0 35.35533905932738,-35.35533905932737 3.061616997868383e-15,-50.0 -35.35533905932737,-35.35533905932738 -50.0,-6.123233995736766e-15 -35.355339059327385,35.35533905932737 -9.184850993605149e-15,50.0 35.35533905932737,35.355339059327385 -43.30127018922193,25.000000000000007 -12.940952255126032,48.29629131445341 25.000000000000007,43.30127018922193 48.29629131445341,12.940952255126033 43.30127018922194,-24.999999999999996 12.940952255126037,-48.29629131445341 -24.99999999999999,-43.30127018922194 -48.29629131445341,-12.940952255126051 25.000000000000007,-43.30127018922193 -12.940952255126042,-48.29629131445341 -43.30127018922194,-24.999999999999996 -48.29629131445342,12.940952255126017 -25.00000000000002,43.30127018922192 12.940952255126057,48.29629131445341 43.30127018922192,25.00000000000002 48.29629131445341,-12.940952255126037 -9.184850993605149e-15,50.0 35.35533905932737,35.355339059327385 50.0,-0.0 35.35533905932738,-35.35533905932737 3.061616997868383e-15,-50.0 -35.35533905932737,-35.35533905932738 -50.0,-6.123233995736766e-15 -35.355339059327385,35.35533905932737 -24.99999999999999,-43.30127018922194 -48.29629131445341,-12.940952255126051 -43.30127018922193,25.000000000000007 -12.940952255126032,48.29629131445341 25.000000000000007,43.30127018922193 48.29629131445341,12.940952255126033 43.30127018922194,-24.999999999999996 12.940952255126037,-48.29629131445341 43.30127018922192,25.00000000000002 48.29629131445341,-12.940952255126037 25.000000000000007,-43.30127018922193 -12.940952255126042,-48.29629131445341 -43.30127018922194,-24.999999999999996 -48.29629131445342,12.940952255126017 -25.00000000000002,43.30127018922192 12.940952255126057,48.29629131445341 -50.0,-6.123233995736766e-15 -35.355339059327385,35.35533905932737 -9.184850993605149e-15,50.0 35.35533905932737,35.355339059327385 50.0,-0.0 35.35533905932738,-35.35533905932737 3.061616997868383e-15,-50.0 -35.35533905932737,-35.35533905932738 43.30127018922194,-24.999999999999996 12.940952255126037,-48.29629131445341 -24.99999999999999,-43.30127018922194 -48.29629131445341,-12.940952255126051 -43.30127018922193,25.000000000000007 -12.940952255126032,48.29629131445341 25.000000000000007,43.30127018922193 48.29629131445341,12.940952255126033 -25.00000000000002,43.30127018922192 12.940952255126057,48.29629131445341 43.30127018922192,25.00000000000002 48.29629131445341,-12.940952255126037 25.000000000000007,-43.30127018922193 -12.940952255126042,-48.29629131445341 -43.30127018922194,-24.999999999999996 -48.29629131445342,12.940952255126017 3.061616997868383e-15,-50.0 -35.35533905932737,-35.35533905932738 -50.0,-6.123233995736766e-15 -35.355339059327385,35.35533905932737 -9.184850993605149e-15,50.0 35.35533905932737,35.355339059327385 50.0,-0.0 35.35533905932738,-35.35533905932737 25.000000000000007,43.30127018922193 48.29629131445341,12.940952255126033 43.30127018922194,-24.999999999999996 12.940952255126037,-48.29629131445341 -24.99999999999999,-43.30127018922194 -48.29629131445341,-12.940952255126051 -43.30127018922193,25.000000000000007 -12.940952255126032,48.29629131445341 -43.30127018922194,-24.999999999999996 -48.29629131445342,12.940952255126017 -25.00000000000002,43.30127018922192 12.940952255126057,48.29629131445341 43.30127018922192,25.00000000000002 48.29629131445341,-12.940952255126037 25.000000000000007,-43.30127018922193 -12.940952255126042,-48.29629131445341 50.0,-0.0 35.35533905932738,-35.35533905932737 3.061616997868383e-15,-50.0 -35.35533905932737,-35.35533905932738 -50.0,-6.123233995736766e-15 -35.355339059327385,35.35533905932737 -9.184850993605149e-15,50.0 35.35533905932737,35.355339059327385 -43.30127018922193,25.000000000000007 -12.940952255126032,48.29629131445341 25.000000000000007,43.30127018922193 48.29629131445341,12.940952255126033 43.30127018922194,-24.999999999999996 12.940952255126037,-48.29629131445341 -24.99999999999999,-43.30127018922194 -48.29629131445341,-12.940952255126051 25.000000000000007,-43.30127018922193 -12.940952255126042,-48.29629131445341 -43.30127018922194,-24.999999999999996 -48.29629131445342,12.940952255126017 -25.00000000000002,43.30127018922192 12.940952255126057,48.29629131445341 43.30127018922192,25.00000000000002 48.29629131445341,-12.940952255126037 -9.184850993605149e-15,50.0 35.35533905932737,35.355339059327385 50.0,-0.0 35.35533905932738,-35.35533905932737 3.061616997868383e-15,-50.0 -35.35533905932737,-35.35533905932738 -50.0,-6.123233995736766e-15 -35.355339059327385,35.35533905932737 -24.99999999999999,-43.30127018922194 -48.29629131445341,-12.940952255126051 -43.30127018922193,25.000000000000007 -12.940952255126032,48.29629131445341 25.000000000000007,43.30127018922193 48.29629131445341,12.940952255126033 43.30127018922194,-24.999999999999996 12.940952255126037,-48.29629131445341 43.30127018922192,25.00000000000002 48.29629131445341,-12.940952255126037 25.000000000000007,-43.30127018922193 -12.940952255126042,-48.29629131445341 -43.30127018922194,-24.999999999999996 -48.29629131445342,12.940952255126017 -25.00000000000002,43.30127018922192 12.940952255126057,48.29629131445341 -50.0,-6.123233995736766e-15 -35.355339059327385,35.35533905932737 -9.184850993605149e-15,50.0 35.35533905932737,35.355339059327385 50.0,-0.0 35.35533905932738,-35.35533905932737 3.061616997868383e-15,-50.0 -35.35533905932737,-35.35533905932738 43.30127018922194,-24.999999999999996 12.940952255126037,-48.29629131445341 -24.99999999999999,-43.30127018922194 -48.29629131445341,-12.940952255126051 -43.30127018922193,25.000000000000007 -12.940952255126032,48.29629131445341 25.000000000000007,43.30127018922193 48.29629131445341,12.940952255126033 -25.00000000000002,43.30127018922192 12.940952255126057,48.29629131445341 43.30127018922192,25.00000000000002 48.29629131445341,-12.940952255126037 25.000000000000007,-43.30127018922193 -12.940952255126042,-48.29629131445341 -43.30127018922194,-24.999999999999996 -48.29629131445342,12.940952255126017 3.061616997868383e-15,-50.0 -35.35533905932737,-35.35533905932738 -50.0,-6.123233995736766e-15 -35.355339059327385,35.35533905932737 -9.184850993605149e-15,50.0 35.35533905932737,35.355339059327385 50.0,-0.0 35.35533905932738,-35.35533905932737 25.000000000000007,43.30127018922193 48.29629131445341,12.940952255126033 43.30127018922194,-24.999999999999996 12.940952255126037,-48.29629131445341 -24.99999999999999,-43.30127018922194 -48.29629131445341,-12.940952255126051 -43.30127018922193,25.000000000000007 -12.940952255126032,48.29629131445341 -43.30127018922194,-24.999999999999996 -48.29629131445342,12.940952255126017 -25.00000000000002,43.30127018922192 12.940952255126057,48.29629131445341 43.30127018922192,25.00000000000002 48.29629131445341,-12.940952255126037 25.000000000000007,-43.30127018922193 -12.940952255126042,-48.29629131445341 50.0,-0.0 35.35533905932738,-35.35533905932737 3.061616997868383e-15,-50.0 -35.35533905932737,-35.35533905932738 -50.0,-6.123233995736766e-15 -35.355339059327385,35.35533905932737 -9.184850993605149e-15,50.0 35.35533905932737,35.355339059327385 -43.30127018922193,25.000000000000007 -12.940952255126032,48.29629131445341 25.000000000000007,43.30127018922193 48.29629131445341,12.940952255126033 43.30127018922194,-24.999999999999996 12.940952255126037,-48.29629131445341 -24.99999999999999,-43.30127018922194 -48.29629131445341,-12.940952255126051 25.000000000000007,-43.30127018922193 -12.940952255126042,-48.29629131445341 -43.30127018922194,-24.999999999999996 -48.29629131445342,12.940952255126017 -25.00000000000002,43.30127018922192 12.940952255126057,48.29629131445341 43.30127018922192,25.00000000000002 48.29629131445341,-12.940952255126037 -9.184850993605149e-15,50.0 35.35533905932737,35.355339059327385 50.0,-0.0 35.35533905932738,-35.35533905932737 3.061616997868383e-15,-50.0 -35.35533905932737,-35.35533905932738 -50.0,-6.123233995736766e-15 -35.355339059327385,35.35533905932737 -24.99999999999999,-43.30127018922194 -48.29629131445341,-12.940952255126051 -43.30127018922193,25.000000000000007 -12.940952255126032,48.29629131445341 25.000000000000007,43.30127018922193 48.29629131445341,12.940952255126033 43.30127018922194,-24.999999999999996 12.940952255126037,-48.29629131445341 43.30127018922192,25.00000000000002 48.29629131445341,-12.940952255126037 25.000000000000007,-43.30127018922193 -12.940952255126042,-48.29629131445341 -43.30127018922194,-24.999999999999996 -48.29629131445342,12.940952255126017 -25.00000000000002,43.30127018922192 12.940952255126057,48.29629131445341 -50.0,-6.123233995736766e-15 -35.355339059327385,35.35533905932737 -9.184850993605149e-15,50.0 35.35533905932737,35.355339059327385 50.0,-0.0 35.35533905932738,-35.35533905932737 3.061616997868383e-15,-50.0 -35.35533905932737,-35.35533905932738 43.30127018922194,-24.999999999999996 12.940952255126037,-48.29629131445341 -24.99999999999999,-43.30127018922194 -48.29629131445341,-12.940952255126051 -43.30127018922193,25.000000000000007 -12.940952255126032,48.29629131445341 25.000000000000007,43.30127018922193 48.29629131445341,12.940952255126033 -25.00000000000002,43.30127018922192 12.940952255126057,48.29629131445341 43.30127018922192,25.00000000000002 48.29629131445341,-12.940952255126037 25.000000000000007,-43.30127018922193 -12.940952255126042,-48.29629131445341 -43.30127018922194,-24.999999999999996 -48.29629131445342,12.940952255126017 3.061616997868383e-15,-50.0 -35.35533905932737,-35.35533905932738 -50.0,-6.123233995736766e-15 -35.355339059327385,35.35533905932737 -9.184850993605149e-15,50.0 35.35533905932737,35.355339059327385 50.0,-0.0 35.35533905932738,-35.35533905932737 25.000000000000007,43.30127018922193 48.29629131445341,12.940952255126033 43.30127018922194,-24.999999999999996 12.940952255126037,-48.29629131445341 -24.99999999999999,-43.30127018922194 -48.29629131445341,-12.940952255126051 -43.30127018922193,25.000000000000007 -12.940952255126032,48.29629131445341 -43.30127018922194,-24.999999999999996 -48.29629131445342,12.940952255126017 -25.00000000000002,43.30127018922192 12.940952255126057,48.29629131445341 43.30127018922192,25.00000000000002 48.29629131445341,-12.940952255126037 25.000000000000007,-43.30127018922193 -12.940952255126042,-48.29629131445341 50.0,-0.0 35.35533905932738,-35.35533905932737 3.061616997868383e-15,-50.0 -35.35533905932737,-35.35533905932738 -50.0,-6.123233995736766e-15 -35.355339059327385,35.35533905932737 -9.184850993605149e-15,50.0 35.35533905932737,35.355339059327385 -43.30127018922193,25.000000000000007 -12.940952255126032,48.29629131445341 25.000000000000007,43.30127018922193 48.29629131445341,12.940952255126033 43.30127018922194,-24.999999999999996 12.940952255126037,-48.29629131445341 -24.99999999999999,-43.30127018922194 -48.29629131445341,-12.940952255126051 25.000000000000007,-43.30127018922193 -12.940952255126042,-48.29629131445341 -43.30127018922194,-24.999999999999996 -48.29629131445342,12.940952255126017 -25.00000000000002,43.30127018922192 12.940952255126057,48.29629131445341 43.30127018922192,25.00000000000002 48.29629131445341,-12.940952255126037 -9.184850993605149e-15,50.0 35.35533905932737,35.355339059327385 50.0,-0.0 35.35533905932738,-35.35533905932737 3.061616997868383e-15,-50.0 -35.35533905932737,-35.35533905932738 -50.0,-6.123233995736766e-15 -35.355339059327385,35.35533905932737 -24.99999999999999,-43.30127018922194 -48.29629131445341,-12.940952255126051 -43.30127018922193,25.000000000000007 -12.940952255126032,48.29629131445341 25.000000000000007,43.30127018922193 48.29629131445341,12.940952255126033 43.30127018922194,-24.999999999999996 12.940952255126037,-48.29629131445341 43.30127018922192,25.00000000000002 48.29629131445341,-12.940952255126037 25.000000000000007,-43.30127018922193 -12.940952255126042,-48.29629131445341 -43.30127018922194,-24.999999999999996 -48.29629131445342,12.940952255126017 -25.00000000000002,43.30127018922192 12.940952255126057,48.29629131445341 -50.0,-6.123233995736766e-15 -35.355339059327385,35.35533905932737 -9.184850993605149e-15,50.0 35.35533905932737,35.355339059327385 50.0,-0.0 35.35533905932738,-35.35533905932737 3.061616997868383e-15,-50.0 -35.35533905932737,-35.35533905932738 43.30127018922194,-24.999999999999996 12.940952255126037,-48.29629131445341 -24.99999999999999,-43.30127018922194 -48.29629131445341,-12.940952255126051 -43.30127018922193,25.000000000000007 -12.940952255126032,48.29629131445341 25.000000000000007,43.30127018922193 48.29629131445341,12.940952255126033 -25.00000000000002,43.30127018922192 12.940952255126057,48.29629131445341 43.30127018922192,25.00000000000002 48.29629131445341,-12.940952255126037 25.000000000000007,-43.30127018922193 -12.940952255126042,-48.29629131445341 -43.30127018922194,-24.999999999999996 -48.29629131445342,12.940952255126017 3.061616997868383e-15,-50.0 -35.35533905932737,-35.35533905932738 -50.0,-6.123233995736766e-15 -35.355339059327385,35.35533905932737 -9.184850993605149e-15,50.0 35.35533905932737,35.355339059327385 50.0,-0.0 35.35533905932738,-35.35533905932737 z" />
</svg>
