<?xml version="1.0" encoding="UTF-8" standalone="no"?>
<svg xmlns="http://www.w3.org/2000/svg"
     width="1000.0"
     height="1000.0"
     viewBox="0 0 1000.0 1000.0" >
<path style="fill:none;stroke:#000000;stroke-width:1px" id="1" d="m 500.0,250.0 -1.736481776669303,-9.84807753012208 -3.420201433256687,-9.396926207859085 -4.999999999999998,-8.660254037844387 -6.427876096865393,-7.66044443118978 -7.660444431189779,-6.427876096865395 -8.660254037844387,-4.999999999999999 -9.396926207859083,-3.420201433256689 -9.84807753012208,-1.7364817766693028 -10.0,-1.2246467991473533e-15 -9.84807753012208,1.7364817766693048 -9.396926207859085,3.4202014332566866 -8.660254037844386,5.000000000000001 -7.66044443118978,6.4278760968653925 -6.427876096865395,7.660444431189779 -5.000000000000004,8.660254037844384 -3.4202014332566937,9.396926207859082 -1.7364817766693033,9.84807753012208 -1.8369701987210296e-15,10.0 1.7364817766692997,9.848077530122081 3.4202014332566817,9.396926207859085 5.000000000000001,8.660254037844386 6.4278760968653925,7.660444431189781 7.660444431189778,6.427876096865396 8.660254037844384,5.000000000000004 9.396926207859085,3.420201433256686 9.84807753012208,1.7364817766693128 10.0,-0.0 9.84807753012208,-1.7364817766693033 9.396926207859085,-3.420201433256687 8.660254037844387,-4.999999999999999 7.66044443118978,-6.4278760968653925 6.427876096865393,-7.66044443118978 5.000000000000001,-8.660254037844386 3.4202014332566884,-9.396926207859083 1.7364817766693041,-9.84807753012208 6.123233995736766e-16,-10.0 -1.736481776669303,-9.84807753012208 -3.420201433256687,-9.396926207859085 -4.999999999999998,-8.660254037844387 -6.427876096865393,-7.66044443118978 -7.660444431189779,-6.427876096865395 -8.660254037844387,-4.999999999999999 -9.396926207859083,-3.420201433256689 -9.84807753012208,-1.7364817766693028 -10.0,-1.2246467991473533e-15 -9.84807753012208,1.7364817766693048 -9.396926207859085,3.4202014332566866 -8.660254037844386,5.000000000000001 -7.66044443118978,6.4278760968653925 -6.427876096865395,7.660444431189779 -5.000000000000004,8.660254037844384 -3.4202014332566937,9.396926207859082 -1.7364817766693033,9.84807753012208 -1.8369701987210296e-15,10.0 1.7364817766692997,9.848077530122081 3.4202014332566817,9.396926207859085 5.000000000000001,8.660254037844386 6.4278760968653925,7.660444431189781 7.660444431189778,6.427876096865396 8.660254037844384,5.000000000000004 9.396926207859085,3.420201433256686 9.84807753012208,1.7364817766693128 10.0,-0.0 9.84807753012208,-1.7364817766693033 9.396926207859085,-3.420201433256687 8.660254037844387,-4.999999999999999 7.66044443118978,-6.4278760968653925 6.427876096865393,-7.66044443118978 5.000000000000001,-8.660254037844386 3.4202014332566884,-9.396926207859083 1.7364817766693041,-9.84807753012208 6.123233995736766e-16,-10.0 z" />
</svg>
