<?xml version="1.0" encoding="UTF-8" standalone="no"?>
<svg xmlns="http://www.w3.org/2000/svg"
     width="1000.0"
     height="1000.0"
     viewBox="0 0 1000.0 1000.0" >
<path style="fill:none;stroke:#000000;stroke-width:1px" id="4" d="m 502.32964990912376,129.19131962887477 61.56614753256585,78.80107536067217 -92.71838545667873,-37.460659341591224 99.02680687415703,-13.917310096006544 -78.80107536067223,61.566147532565786 37.460659341591196,-92.71838545667875 13.917310096006547,99.02680687415703 -61.56614753256583,-78.8010753606722 92.71838545667873,37.46065934159123 -99.02680687415703,13.917310096006553 78.8010753606722,-61.56614753256582 -37.46065934159123,92.71838545667873 -13.917310096006535,-99.02680687415703 61.56614753256585,78.80107536067217 -92.71838545667873,-37.460659341591224 99.02680687415703,-13.917310096006544 -78.80107536067223,61.566147532565786 37.460659341591196,-92.71838545667875 13.917310096006547,99.02680687415703 -61.56614753256583,-78.8010753606722 92.71838545667873,37.46065934159123 -99.02680687415703,13.917310096006553 78.8010753606722,-61.56614753256582 -37.46065934159123,92.71838545667873 -13.917310096006535,-99.02680687415703 z" />
<path style="fill:none;stroke:#000000;stroke-width:1px" id="3" d="m 594.6788712079725,247.39293266988307 3.715724127386971,3.3456530317942907 4.240240480782127,2.6495963211660287 4.635919272833936,1.8730329670795618 4.890738003669028,1.0395584540887994 4.9969541350954785,0.1744974835125041 4.951340343707852,-0.6958655048003272 4.755282581475767,-1.545084971874737 4.414737964294635,-2.347357813929454 3.94005376803361,-3.078307376628291 3.345653031794291,-3.7157241273869706 2.6495963211660243,-4.24024048078213 1.8730329670795598,-4.635919272833937 1.0395584540887972,-4.890738003669028 0.1744974835125054,-4.9969541350954785 -0.6958655048003268,-4.951340343707852 -1.5450849718747368,-4.755282581475768 -2.3473578139294524,-4.414737964294636 -3.0783073766282913,-3.94005376803361 -3.71572412738697,-3.3456530317942916 -4.24024048078213,-2.6495963211660243 -4.635919272833936,-1.8730329670795611 -4.8907380036690284,-1.0395584540887965 -4.9969541350954785,-0.1744974835125035 -4.951340343707852,0.6958655048003276 -4.755282581475767,1.5450849718747386 -4.414737964294634,2.347357813929454 -3.940053768033611,3.078307376628289 -3.345653031794292,3.71572412738697 -2.649596321166025,4.24024048078213 -1.8730329670795616,4.635919272833936 -1.039558454088799,4.890738003669028 -0.17449748351250824,4.9969541350954785 0.6958655048003273,4.951340343707852 1.5450849718747361,4.755282581475768 2.347357813929452,4.414737964294636 3.0783073766282927,3.940053768033609 3.715724127386971,3.3456530317942907 4.240240480782127,2.6495963211660287 4.635919272833936,1.8730329670795618 4.890738003669028,1.0395584540887994 4.9969541350954785,0.1744974835125041 4.951340343707852,-0.6958655048003272 4.755282581475767,-1.545084971874737 4.414737964294635,-2.347357813929454 3.94005376803361,-3.078307376628291 3.345653031794291,-3.7157241273869706 2.6495963211660243,-4.24024048078213 1.8730329670795598,-4.635919272833937 1.0395584540887972,-4.890738003669028 0.1744974835125054,-4.9969541350954785 -0.6958655048003268,-4.951340343707852 -1.5450849718747368,-4.755282581475768 -2.3473578139294524,-4.414737964294636 -3.0783073766282913,-3.94005376803361 -3.71572412738697,-3.3456530317942916 -4.24024048078213,-2.6495963211660243 -4.635919272833936,-1.8730329670795611 -4.8907380036690284,-1.0395584540887965 -4.9969541350954785,-0.1744974835125035 -4.951340343707852,0.6958655048003276 -4.755282581475767,1.5450849718747386 -4.414737964294634,2.347357813929454 -3.940053768033611,3.078307376628289 -3.345653031794292,3.71572412738697 -2.649596321166025,4.24024048078213 -1.8730329670795616,4.635919272833936 -1.039558454088799,4.890738003669028 -0.17449748351250824,4.9969541350954785 0.6958655048003273,4.951340343707852 1.5450849718747361,4.755282581475768 2.347357813929452,4.414737964294636 3.0783073766282927,3.940053768033609 3.715724127386971,3.3456530317942907 4.240240480782127,2.6495963211660287 4.635919272833936,1.8730329670795618 4.890738003669028,1.0395584540887994 4.9969541350954785,0.1744974835125041 4.951340343707852,-0.6958655048003272 4.755282581475767,-1.545084971874737 4.414737964294635,-2.347357813929454 3.94005376803361,-3.078307376628291 3.345653031794291,-3.7157241273869706 2.6495963211660243,-4.24024048078213 1.8730329670795598,-4.635919272833937 1.0395584540887972,-4.890738003669028 0.1744974835125054,-4.9969541350954785 -0.6958655048003268,-4.951340343707852 -1.5450849718747368,-4.755282581475768 -2.3473578139294524,-4.414737964294636 -3.0783073766282913,-3.94005376803361 -3.71572412738697,-3.3456530317942916 -4.24024048078213,-2.6495963211660243 -4.635919272833936,-1.8730329670795611 -4.8907380036690284,-1.0395584540887965 -4.9969541350954785,-0.1744974835125035 -4.951340343707852,0.6958655048003276 -4.755282581475767,1.5450849718747386 -4.414737964294634,2.347357813929454 -3.940053768033611,3.078307376628289 -3.345653031794292,3.71572412738697 -2.649596321166025,4.24024048078213 -1.8730329670795616,4.635919272833936 -1.039558454088799,4.890738003669028 -0.17449748351250824,4.9969541350954785 0.6958655048003273,4.951340343707852 1.5450849718747361,4.755282581475768 2.347357813929452,4.414737964294636 3.0783073766282927,3.940053768033609 3.715724127386971,3.3456530317942907 4.240240480782127,2.6495963211660287 4.635919272833936,1.8730329670795618 4.890738003669028,1.0395584540887994 4.9969541350954785,0.1744974835125041 4.951340343707852,-0.6958655048003272 4.755282581475767,-1.545084971874737 4.414737964294635,-2.347357813929454 3.94005376803361,-3.078307376628291 3.345653031794291,-3.7157241273869706 2.6495963211660243,-4.24024048078213 1.8730329670795598,-4.635919272833937 1.0395584540887972,-4.890738003669028 0.1744974835125054,-4.9969541350954785 -0.6958655048003268,-4.951340343707852 -1.5450849718747368,-4.755282581475768 -2.3473578139294524,-4.414737964294636 -3.0783073766282913,-3.94005376803361 -3.71572412738697,-3.3456530317942916 -4.24024048078213,-2.6495963211660243 -4.635919272833936,-1.8730329670795611 -4.8907380036690284,-1.0395584540887965 -4.9969541350954785,-0.1744974835125035 -4.951340343707852,0.6958655048003276 -4.755282581475767,1.5450849718747386 -4.414737964294634,2.347357813929454 -3.940053768033611,3.078307376628289 -3.345653031794292,3.71572412738697 -2.649596321166025,4.24024048078213 -1.8730329670795616,4.635919272833936 -1.039558454088799,4.890738003669028 -0.17449748351250824,4.9969541350954785 0.6958655048003273,4.951340343707852 1.5450849718747361,4.755282581475768 2.347357813929452,4.414737964294636 3.0783073766282927,3.940053768033609 z" />
<path style="fill:none;stroke:#000000;stroke-width:1px" id="2" d="m 840.9434613382359,562.5972341125689 -46.359192728339366,-18.730329670795612 -46.02524267262202,19.536556424463676 -18.730329670795616,46.359192728339366 19.536556424463676,46.02524267262203 46.359192728339366,18.730329670795616 46.02524267262202,-19.536556424463686 18.730329670795598,-46.35919272833937 -19.53655642446368,-46.02524267262202 49.513403437078516,-6.958655048003272 30.09075115760242,-39.931775502364644 -6.958655048003267,-49.513403437078516 -39.931775502364644,-30.09075115760241 -49.513403437078516,6.958655048003276 -30.090751157602412,39.931775502364644 6.958655048003274,49.513403437078516 39.931775502364644,30.090751157602412 -39.400537680336114,30.783073766282893 -6.093467170257359,49.6273075820661 30.783073766282925,39.400537680336086 49.6273075820661,6.093467170257406 39.4005376803361,-30.78307376628291 6.093467170257375,-49.6273075820661 -30.783073766282914,-39.4005376803361 -49.6273075820661,-6.0934671702573775 18.730329670795598,-46.35919272833937 -19.53655642446368,-46.02524267262202 -46.359192728339366,-18.730329670795612 -46.02524267262202,19.536556424463676 -18.730329670795616,46.359192728339366 19.536556424463676,46.02524267262203 46.359192728339366,18.730329670795616 46.02524267262202,-19.536556424463686 6.958655048003274,49.513403437078516 39.931775502364644,30.090751157602412 49.513403437078516,-6.958655048003272 30.09075115760242,-39.931775502364644 -6.958655048003267,-49.513403437078516 -39.931775502364644,-30.09075115760241 -49.513403437078516,6.958655048003276 -30.090751157602412,39.931775502364644 -30.783073766282914,-39.4005376803361 -49.6273075820661,-6.0934671702573775 -39.400537680336114,30.783073766282893 -6.093467170257359,49.6273075820661 30.783073766282925,39.400537680336086 49.6273075820661,6.093467170257406 39.4005376803361,-30.78307376628291 6.093467170257375,-49.6273075820661 46.359192728339366,18.730329670795616 46.02524267262202,-19.536556424463686 18.730329670795598,-46.35919272833937 -19.53655642446368,-46.02524267262202 -46.359192728339366,-18.730329670795612 -46.02524267262202,19.536556424463676 -18.730329670795616,46.359192728339366 19.536556424463676,46.02524267262203 -49.513403437078516,6.958655048003276 -30.090751157602412,39.931775502364644 6.958655048003274,49.513403437078516 39.931775502364644,30.090751157602412 49.513403437078516,-6.958655048003272 30.09075115760242,-39.931775502364644 -6.958655048003267,-49.513403437078516 -39.931775502364644,-30.09075115760241 39.4005376803361,-30.78307376628291 6.093467170257375,-49.6273075820661 -30.783073766282914,-39.4005376803361 -49.6273075820661,-6.0934671702573775 -39.400537680336114,30.783073766282893 -6.093467170257359,49.6273075820661 30.783073766282925,39.400537680336086 49.6273075820661,6.093467170257406 -18.730329670795616,46.359192728339366 19.536556424463676,46.02524267262203 46.359192728339366,18.730329670795616 46.02524267262202,-19.536556424463686 18.730329670795598,-46.35919272833937 -19.53655642446368,-46.02524267262202 -46.359192728339366,-18.730329670795612 -46.02524267262202,19.536556424463676 -6.958655048003267,-49.513403437078516 -39.931775502364644,-30.09075115760241 -49.513403437078516,6.958655048003276 -30.090751157602412,39.931775502364644 6.958655048003274,49.513403437078516 39.931775502364644,30.090751157602412 49.513403437078516,-6.958655048003272 30.09075115760242,-39.931775502364644 30.783073766282925,39.400537680336086 49.6273075820661,6.093467170257406 39.4005376803361,-30.78307376628291 6.093467170257375,-49.6273075820661 -30.783073766282914,-39.4005376803361 -49.6273075820661,-6.0934671702573775 -39.400537680336114,30.783073766282893 -6.093467170257359,49.6273075820661 -46.359192728339366,-18.730329670795612 -46.02524267262202,19.536556424463676 -18.730329670795616,46.359192728339366 19.536556424463676,46.02524267262203 46.359192728339366,18.730329670795616 46.02524267262202,-19.536556424463686 18.730329670795598,-46.35919272833937 -19.53655642446368,-46.02524267262202 49.513403437078516,-6.958655048003272 30.09075115760242,-39.931775502364644 -6.958655048003267,-49.513403437078516 -39.931775502364644,-30.09075115760241 -49.513403437078516,6.958655048003276 -30.090751157602412,39.931775502364644 6.958655048003274,49.513403437078516 39.931775502364644,30.090751157602412 -39.400537680336114,30.783073766282893 -6.093467170257359,49.6273075820661 30.783073766282925,39.400537680336086 49.6273075820661,6.093467170257406 39.4005376803361,-30.78307376628291 6.093467170257375,-49.6273075820661 -30.783073766282914,-39.4005376803361 -49.6273075820661,-6.0934671702573775 18.730329670795598,-46.35919272833937 -19.53655642446368,-46.02524267262202 -46.359192728339366,-18.730329670795612 -46.02524267262202,19.536556424463676 -18.730329670795616,46.359192728339366 19.536556424463676,46.02524267262203 46.359192728339366,18.730329670795616 46.02524267262202,-19.536556424463686 6.958655048003274,49.513403437078516 39.931775502364644,30.090751157602412 49.513403437078516,-6.958655048003272 30.09075115760242,-39.931775502364644 -6.958655048003267,-49.513403437078516 -39.931775502364644,-30.09075115760241 -49.513403437078516,6.958655048003276 -30.090751157602412,39.931775502364644 -30.783073766282914,-39.4005376803361 -49.6273075820661,-6.0934671702573775 -39.400537680336114,30.783073766282893 -6.093467170257359,49.6273075820661 30.783073766282925,39.400537680336086 49.6273075820661,6.093467170257406 39.4005376803361,-30.78307376628291 6.093467170257375,-49.6273075820661 46.359192728339366,18.730329670795616 46.02524267262202,-19.536556424463686 18.730329670795598,-46.35919272833937 -19.53655642446368,-46.02524267262202 -46.359192728339366,-18.730329670795612 -46.02524267262202,19.536556424463676 -18.730329670795616,46.359192728339366 19.536556424463676,46.02524267262203 -49.513403437078516,6.958655048003276 -30.090751157602412,39.931775502364644 6.958655048003274,49.513403437078516 39.931775502364644,30.090751157602412 49.513403437078516,-6.958655048003272 30.09075115760242,-39.931775502364644 -6.958655048003267,-49.513403437078516 -39.931775502364644,-30.09075115760241 39.4005376803361,-30.78307376628291 6.093467170257375,-49.6273075820661 -30.783073766282914,-39.4005376803361 -49.6273075820661,-6.0934671702573775 -39.400537680336114,30.783073766282893 -6.093467170257359,49.6273075820661 30.783073766282925,39.400537680336086 49.6273075820661,6.093467170257406 -18.730329670795616,46.359192728339366 19.536556424463676,46.02524267262203 46.359192728339366,18.730329670795616 46.02524267262202,-19.536556424463686 18.730329670795598,-46.35919272833937 -19.53655642446368,-46.02524267262202 -46.359192728339366,-18.730329670795612 -46.02524267262202,19.536556424463676 -6.958655048003267,-49.513403437078516 -39.931775502364644,-30.09075115760241 -49.513403437078516,6.958655048003276 -30.090751157602412,39.931775502364644 6.958655048003274,49.513403437078516 39.931775502364644,30.090751157602412 49.513403437078516,-6.958655048003272 30.09075115760242,-39.931775502364644 30.783073766282925,39.400537680336086 49.6273075820661,6.093467170257406 39.4005376803361,-30.78307376628291 6.093467170257375,-49.6273075820661 -30.783073766282914,-39.4005376803361 -49.6273075820661,-6.0934671702573775 -39.400537680336114,30.783073766282893 -6.093467170257359,49.6273075820661 -46.359192728339366,-18.730329670795612 -46.02524267262202,19.536556424463676 -18.730329670795616,46.359192728339366 19.536556424463676,46.02524267262203 46.359192728339366,18.730329670795616 46.02524267262202,-19.536556424463686 18.730329670795598,-46.35919272833937 -19.53655642446368,-46.02524267262202 49.513403437078516,-6.958655048003272 30.09075115760242,-39.931775502364644 -6.958655048003267,-49.513403437078516 -39.931775502364644,-30.09075115760241 -49.513403437078516,6.958655048003276 -30.090751157602412,39.931775502364644 6.958655048003274,49.513403437078516 39.931775502364644,30.090751157602412 -39.400537680336114,30.783073766282893 -6.093467170257359,49.6273075820661 30.783073766282925,39.400537680336086 49.6273075820661,6.093467170257406 39.4005376803361,-30.78307376628291 6.093467170257375,-49.6273075820661 -30.783073766282914,-39.4005376803361 -49.6273075820661,-6.0934671702573775 18.730329670795598,-46.35919272833937 -19.53655642446368,-46.02524267262202 -46.359192728339366,-18.730329670795612 -46.02524267262202,19.536556424463676 -18.730329670795616,46.359192728339366 19.536556424463676,46.02524267262203 46.359192728339366,18.730329670795616 46.02524267262202,-19.536556424463686 6.958655048003274,49.513403437078516 39.931775502364644,30.090751157602412 49.513403437078516,-6.958655048003272 30.09075115760242,-39.931775502364644 -6.958655048003267,-49.513403437078516 -39.931775502364644,-30.09075115760241 -49.513403437078516,6.958655048003276 -30.090751157602412,39.931775502364644 -30.783073766282914,-39.4005376803361 -49.6273075820661,-6.0934671702573775 -39.400537680336114,30.783073766282893 -6.093467170257359,49.6273075820661 30.783073766282925,39.400537680336086 49.6273075820661,6.093467170257406 39.4005376803361,-30.78307376628291 6.093467170257375,-49.6273075820661 46.359192728339366,18.730329670795616 46.02524267262202,-19.536556424463686 18.730329670795598,-46.35919272833937 -19.53655642446368,-46.02524267262202 -46.359192728339366,-18.730329670795612 -46.02524267262202,19.536556424463676 -18.730329670795616,46.359192728339366 19.536556424463676,46.02524267262203 -49.513403437078516,6.958655048003276 -30.090751157602412,39.931775502364644 6.958655048003274,49.513403437078516 39.931775502364644,30.090751157602412 49.513403437078516,-6.958655048003272 30.09075115760242,-39.931775502364644 -6.958655048003267,-49.513403437078516 -39.931775502364644,-30.09075115760241 39.4005376803361,-30.78307376628291 6.093467170257375,-49.6273075820661 -30.783073766282914,-39.4005376803361 -49.6273075820661,-6.0934671702573775 -39.400537680336114,30.783073766282893 -6.093467170257359,49.6273075820661 30.783073766282925,39.400537680336086 49.6273075820661,6.093467170257406 -18.730329670795616,46.359192728339366 19.536556424463676,46.02524267262203 46.359192728339366,18.730329670795616 46.02524267262202,-19.536556424463686 18.730329670795598,-46.35919272833937 -19.53655642446368,-46.02524267262202 -46.359192728339366,-18.730329670795612 -46.02524267262202,19.536556424463676 -6.958655048003267,-49.513403437078516 -39.931775502364644,-30.09075115760241 -49.513403437078516,6.958655048003276 -30.090751157602412,39.931775502364644 6.958655048003274,49.513403437078516 39.931775502364644,30.090751157602412 49.513403437078516,-6.958655048003272 30.09075115760242,-39.931775502364644 30.783073766282925,39.400537680336086 49.6273075820661,6.093467170257406 39.4005376803361,-30.78307376628291 6.093467170257375,-49.6273075820661 -30.783073766282914,-39.4005376803361 -49.6273075820661,-6.0934671702573775 -39.400537680336114,30.783073766282893 -6.093467170257359,49.6273075820661 -46.359192728339366,-18.730329670795612 -46.02524267262202,19.536556424463676 -18.730329670795616,46.359192728339366 19.536556424463676,46.02524267262203 46.359192728339366,18.730329670795616 46.02524267262202,-19.536556424463686 18.730329670795598,-46.35919272833937 -19.53655642446368,-46.02524267262202 49.513403437078516,-6.958655048003272 30.09075115760242,-39.931775502364644 -6.958655048003267,-49.513403437078516 -39.931775502364644,-30.09075115760241 -49.513403437078516,6.958655048003276 -30.090751157602412,39.931775502364644 6.958655048003274,49.513403437078516 39.931775502364644,30.090751157602412 -39.400537680336114,30.783073766282893 -6.093467170257359,49.6273075820661 30.783073766282925,39.400537680336086 49.6273075820661,6.093467170257406 39.4005376803361,-30.78307376628291 6.093467170257375,-49.6273075820661 -30.783073766282914,-39.4005376803361 -49.6273075820661,-6.0934671702573775 18.730329670795598,-46.35919272833937 -19.53655642446368,-46.02524267262202 -46.359192728339366,-18.730329670795612 -46.02524267262202,19.536556424463676 -18.730329670795616,46.359192728339366 19.536556424463676,46.02524267262203 46.359192728339366,18.730329670795616 46.02524267262202,-19.536556424463686 6.958655048003274,49.513403437078516 39.931775502364644,30.090751157602412 49.513403437078516,-6.958655048003272 30.09075115760242,-39.931775502364644 -6.958655048003267,-49.513403437078516 -39.931775502364644,-30.09075115760241 -49.513403437078516,6.958655048003276 -30.090751157602412,39.931775502364644 -30.783073766282914,-39.4005376803361 -49.6273075820661,-6.0934671702573775 -39.400537680336114,30.783073766282893 -6.093467170257359,49.6273075820661 30.783073766282925,39.400537680336086 49.6273075820661,6.093467170257406 39.4005376803361,-30.78307376628291 6.093467170257375,-49.6273075820661 46.359192728339366,18.730329670795616 46.02524267262202,-19.536556424463686 18.730329670795598,-46.35919272833937 -19.53655642446368,-46.02524267262202 -46.359192728339366,-18.730329670795612 -46.02524267262202,19.536556424463676 -18.730329670795616,46.359192728339366 19.536556424463676,46.02524267262203 -49.513403437078516,6.958655048003276 -30.090751157602412,39.931775502364644 6.958655048003274,49.513403437078516 39.931775502364644,30.090751157602412 49.513403437078516,-6.958655048003272 30.09075115760242,-39.931775502364644 -6.958655048003267,-49.513403437078516 -39.931775502364644,-30.09075115760241 39.4005376803361,-30.78307376628291 6.093467170257375,-49.6273075820661 -30.783073766282914,-39.4005376803361 -49.6273075820661,-6.0934671702573775 -39.400537680336114,30.783073766282893 -6.093467170257359,49.6273075820661 30.783073766282925,39.400537680336086 49.6273075820661,6.093467170257406 -18.730329670795616,46.359192728339366 19.536556424463676,46.02524267262203 46.359192728339366,18.730329670795616 46.02524267262202,-19.536556424463686 18.730329670795598,-46.35919272833937 -19.53655642446368,-46.02524267262202 -46.359192728339366,-18.730329670795612 -46.02524267262202,19.536556424463676 -6.958655048003267,-49.513403437078516 -39.931775502364644,-30.09075115760241 -49.513403437078516,6.958655048003276 -30.090751157602412,39.931775502364644 6.958655048003274,49.513403437078516 39.931775502364644,30.090751157602412 49.513403437078516,-6.958655048003272 30.09075115760242,-39.931775502364644 30.783073766282925,39.400537680336086 49.6273075820661,6.093467170257406 39.4005376803361,-30.78307376628291 6.093467170257375,-49.6273075820661 -30.783073766282914,-39.4005376803361 -49.6273075820661,-6.0934671702573775 -39.400537680336114,30.783073766282893 -6.093467170257359,49.6273075820661 -46.359192728339366,-18.730329670795612 -46.02524267262202,19.536556424463676 -18.730329670795616,46.359192728339366 19.536556424463676,46.02524267262203 46.359192728339366,18.730329670795616 46.02524267262202,-19.536556424463686 18.730329670795598,-46.35919272833937 -19.53655642446368,-46.02524267262202 49.513403437078516,-6.958655048003272 30.09075115760242,-39.931775502364644 -6.958655048003267,-49.513403437078516 -39.931775502364644,-30.09075115760241 -49.513403437078516,6.958655048003276 -30.090751157602412,39.931775502364644 6.958655048003274,49.513403437078516 39.931775502364644,30.090751157602412 -39.400537680336114,30.783073766282893 -6.093467170257359,49.6273075820661 30.783073766282925,39.400537680336086 49.6273075820661,6.093467170257406 39.4005376803361,-30.78307376628291 6.093467170257375,-49.6273075820661 -30.783073766282914,-39.4005376803361 -49.6273075820661,-6.0934671702573775 18.730329670795598,-46.35919272833937 -19.53655642446368,-46.02524267262202 -46.359192728339366,-18.730329670795612 -46.02524267262202,19.536556424463676 -18.730329670795616,46.359192728339366 19.536556424463676,46.02524267262203 46.359192728339366,18.730329670795616 46.02524267262202,-19.536556424463686 6.958655048003274,49.513403437078516 39.931775502364644,30.090751157602412 49.513403437078516,-6.958655048003272 30.09075115760242,-39.931775502364644 -6.958655048003267,-49.513403437078516 -39.931775502364644,-30.09075115760241 -49.513403437078516,6.958655048003276 -30.090751157602412,39.931775502364644 -30.783073766282914,-39.4005376803361 -49.6273075820661,-6.0934671702573775 -39.400537680336114,30.783073766282893 -6.093467170257359,49.6273075820661 30.783073766282925,39.400537680336086 49.6273075820661,6.093467170257406 39.4005376803361,-30.78307376628291 6.093467170257375,-49.6273075820661 46.359192728339366,18.730329670795616 46.02524267262202,-19.536556424463686 18.730329670795598,-46.35919272833937 -19.53655642446368,-46.02524267262202 -46.359192728339366,-18.730329670795612 -46.02524267262202,19.536556424463676 -18.730329670795616,46.359192728339366 19.536556424463676,46.02524267262203 -49.513403437078516,6.958655048003276 -30.090751157602412,39.931775502364644 6.958655048003274,49.513403437078516 39.931775502364644,30.090751157602412 49.513403437078516,-6.958655048003272 30.09075115760242,-39.931775502364644 -6.958655048003267,-49.513403437078516 -39.931775502364644,-30.09075115760241 39.4005376803361,-30.78307376628291 6.093467170257375,-49.6273075820661 -30.783073766282914,-39.4005376803361 -49.6273075820661,-6.0934671702573775 -39.400537680336114,30.783073766282893 -6.093467170257359,49.6273075820661 30.783073766282925,39.400537680336086 49.6273075820661,6.093467170257406 -18.730329670795616,46.359192728339366 19.536556424463676,46.02524267262203 46.359192728339366,18.730329670795616 46.02524267262202,-19.536556424463686 18.730329670795598,-46.35919272833937 -19.53655642446368,-46.02524267262202 -46.359192728339366,-18.730329670795612 -46.02524267262202,19.536556424463676 -6.958655048003267,-49.513403437078516 -39.931775502364644,-30.09075115760241 -49.513403437078516,6.958655048003276 -30.090751157602412,39.931775502364644 6.958655048003274,49.513403437078516 39.931775502364644,30.090751157602412 49.513403437078516,-6.958655048003272 30.09075115760242,-39.931775502364644 30.783073766282925,39.400537680336086 49.6273075820661,6.093467170257406 39.4005376803361,-30.78307376628291 6.093467170257375,-49.6273075820661 -30.783073766282914,-39.4005376803361 -49.6273075820661,-6.0934671702573775 -39.400537680336114,30.783073766282893 -6.093467170257359,49.6273075820661 -46.359192728339366,-18.730329670795612 -46.02524267262202,19.536556424463676 -18.730329670795616,46.359192728339366 19.536556424463676,46.02524267262203 46.359192728339366,18.730329670795616 46.02524267262202,-19.536556424463686 18.730329670795598,-46.35919272833937 -19.53655642446368,-46.02524267262202 49.513403437078516,-6.958655048003272 30.09075115760242,-39.931775502364644 -6.958655048003267,-49.513403437078516 -39.931775502364644,-30.09075115760241 -49.513403437078516,6.958655048003276 -30.090751157602412,39.931775502364644 6.958655048003274,49.513403437078516 39.931775502364644,30.090751157602412 -39.400537680336114,30.783073766282893 -6.093467170257359,49.6273075820661 30.783073766282925,39.400537680336086 49.6273075820661,6.093467170257406 39.4005376803361,-30.78307376628291 6.093467170257375,-49.6273075820661 -30.783073766282914,-39.4005376803361 -49.6273075820661,-6.0934671702573775 18.730329670795598,-46.35919272833937 -19.53655642446368,-46.02524267262202 -46.359192728339366,-18.730329670795612 -46.02524267262202,19.536556424463676 -18.730329670795616,46.359192728339366 19.536556424463676,46.02524267262203 46.359192728339366,18.730329670795616 46.02524267262202,-19.536556424463686 6.958655048003274,49.513403437078516 39.931775502364644,30.090751157602412 49.513403437078516,-6.958655048003272 30.09075115760242,-39.931775502364644 -6.958655048003267,-49.513403437078516 -39.931775502364644,-30.09075115760241 -49.513403437078516,6.958655048003276 -30.090751157602412,39.931775502364644 -30.783073766282914,-39.4005376803361 -49.6273075820661,-6.0934671702573775 -39.400537680336114,30.783073766282893 -6.093467170257359,49.6273075820661 30.783073766282925,39.400537680336086 49.6273075820661,6.093467170257406 39.4005376803361,-30.78307376628291 6.093467170257375,-49.6273075820661 46.359192728339366,18.730329670795616 46.02524267262202,-19.536556424463686 18.730329670795598,-46.35919272833937 -19.53655642446368,-46.02524267262202 -46.359192728339366,-18.730329670795612 -46.02524267262202,19.536556424463676 -18.730329670795616,46.359192728339366 19.536556424463676,46.02524267262203 -49.513403437078516,6.958655048003276 -30.090751157602412,39.931775502364644 6.958655048003274,49.513403437078516 39.931775502364644,30.090751157602412 49.513403437078516,-6.958655048003272 30.09075115760242,-39.931775502364644 -6.958655048003267,-49.513403437078516 -39.931775502364644,-30.09075115760241 39.4005376803361,-30.78307376628291 6.093467170257375,-49.6273075820661 -30.783073766282914,-39.4005376803361 -49.6273075820661,-6.0934671702573775 -39.400537680336114,30.783073766282893 -6.093467170257359,49.6273075820661 30.783073766282925,39.400537680336086 49.6273075820661,6.093467170257406 -18.730329670795616,46.359192728339366 19.536556424463676,46.02524267262203 46.359192728339366,18.730329670795616 46.02524267262202,-19.536556424463686 18.730329670795598,-46.35919272833937 -19.53655642446368,-46.02524267262202 -46.359192728339366,-18.730329670795612 -46.02524267262202,19.536556424463676 -6.958655048003267,-49.513403437078516 -39.931775502364644,-30.09075115760241 -49.513403437078516,6.958655048003276 -30.090751157602412,39.931775502364644 6.958655048003274,49.513403437078516 39.931775502364644,30.090751157602412 49.513403437078516,-6.958655048003272 30.09075115760242,-39.931775502364644 30.783073766282925,39.400537680336086 49.6273075820661,6.093467170257406 39.4005376803361,-30.78307376628291 6.093467170257375,-49.6273075820661 -30.783073766282914,-39.4005376803361 -49.6273075820661,-6.0934671702573775 -39.400537680336114,30.783073766282893 -6.093467170257359,49.6273075820661 z" />
<path style="fill:none;stroke:#000000;stroke-width:1px" id="1" d="m 3.3065463576978537e-15,-54.0 16.850820648257354,22.361794281324197 45.794597192447,-28.615640268593065 -10.03430258726841,26.140251941921647 48.534878500155024,23.67204192661016 -27.485561136534592,5.342651870543254 5.644537016453262,53.704182349886764 -19.095954081749944,-20.477903645336788 z" />
</svg>
